<svg width="16" height="16" viewBox="0 0 16 16" fill="none" xmlns="http://www.w3.org/2000/svg">
<path d="M3.86891 0.6875C3.57447 0.6875 3.28443 0.792969 3.04273 0.986328L3.00758 1.00391L2.99 1.02148L1.23219 2.83203L1.24977 2.84961C0.70704 3.35059 0.540048 4.09985 0.775156 4.74805C0.777353 4.75244 0.772959 4.76123 0.775156 4.76562C1.25196 6.13013 2.47144 8.76465 4.85328 11.1465C7.24391 13.5371 9.91358 14.7083 11.2341 15.2246H11.2517C11.9351 15.4531 12.6755 15.2905 13.2029 14.8379L14.9783 13.0625C15.4441 12.5967 15.4441 11.7881 14.9783 11.3223L12.6931 9.03711L12.6755 9.00195C12.2097 8.53613 11.3836 8.53613 10.9177 9.00195L9.79273 10.127C9.38624 9.9314 8.41725 9.43042 7.49 8.54492C6.56934 7.66602 6.09913 6.65527 5.92555 6.25977L7.05055 5.13477C7.52296 4.66235 7.53175 3.87573 7.03297 3.41211L7.05055 3.39453L6.99781 3.3418L4.74781 1.02148L4.73023 1.00391L4.69508 0.986328C4.45338 0.792969 4.16334 0.6875 3.86891 0.6875ZM3.86891 1.8125C3.91065 1.8125 3.9524 1.83228 3.99195 1.86523L6.24195 4.16797L6.29469 4.2207C6.29029 4.21631 6.32765 4.27563 6.25953 4.34375L4.85328 5.75L4.58961 5.99609L4.71266 6.34766C4.71266 6.34766 5.35865 8.0769 6.71656 9.37109L6.83961 9.47656C8.14698 10.6697 9.68727 11.3223 9.68727 11.3223L10.0388 11.4805L11.7087 9.81055C11.8054 9.71387 11.7879 9.71387 11.8845 9.81055L14.1873 12.1133C14.2839 12.21 14.2839 12.1748 14.1873 12.2715L12.4646 13.9941C12.2053 14.2161 11.9307 14.2622 11.6033 14.1523C10.3289 13.6514 7.85255 12.5637 5.6443 10.3555C3.41847 8.12964 2.25611 5.60498 1.82984 4.37891C1.74415 4.15039 1.80567 3.81201 2.00562 3.64062L2.04078 3.60547L3.74586 1.86523C3.78541 1.83228 3.82716 1.8125 3.86891 1.8125Z" fill="#1C1C1C"/>
</svg>
