<svg width="661" height="757" viewBox="0 0 661 757" fill="none" xmlns="http://www.w3.org/2000/svg">
<path d="M214.304 341.347L265 292.583L294.957 327.414L306.478 392.432L288.043 350.635L281.13 371.534L274.217 341.347H244.261L193.565 385.466L225.826 392.432L193.565 408.687L184.348 420.298L225.826 413.331L281.13 392.432L225.826 436.552L145.174 429.586L103.696 457.451L82.9565 617.675L135.957 522.469L198.174 471.383L212 476.028L244.261 436.552H281.13L341.043 364.567L380.217 355.279L371 341.347H391.739L407.87 345.991L426.304 364.567L472.391 371.534L516.174 332.058L509.261 327.414L500.044 332.058L490.826 318.126H509.261V311.16L548.435 287.939L601.435 234.531L633.696 287.939V332.058L645.217 383.144L647.522 424.942L615.261 332.058V292.583L592.217 269.362L548.435 287.939L490.826 383.144L516.174 420.298L520.783 450.485L553.044 496.926L490.826 455.129L481.609 429.586L486.217 401.721L467.783 397.077L426.304 364.567H396.348L380.217 355.279L400.957 392.432L407.87 424.942L396.348 450.485L389.147 464.417L387.13 436.552V408.687L380.217 383.144L359.478 371.534L341.043 371.534L281.13 459.773L244.261 464.417L230.435 482.994L198.174 487.964L145.174 529.395L135.957 548.012L122.13 561.619L82.9565 617.675L92.1739 667.498L135.957 694.304L198.174 703.592L274.217 703.592L299.565 733.779L354.87 673.405L350.261 630.446L350.261 401.721L364.255 514.544L396.348 476.028L391.739 554.979L380.217 630.446L387.13 673.405L391.739 694.304L380.217 703.592L391.739 731.457L407.87 757L486.217 707.162L531.542 697.733L573.783 647.088L565.269 620.956L580.696 599.098L622.174 554.979L626.783 541.046L622.174 522.469L636 496.926L647.522 450.485L649.826 489.96L640.609 508.537L626.783 541.046L622.174 554.979L615.261 650.184L661.348 661.794L691.304 630.446L679.783 582.844L675.174 541.046L682.087 476.028V531.758L700.522 610.709L691.304 630.446L661.348 661.794L615.261 650.184L573.783 647.088V679.006L541.522 718.136L490.826 741.153L407.87 757L391.739 731.457L299.565 733.779L274.217 703.592L198.174 703.592L135.957 694.304L92.1739 667.498L82.9565 617.675L20.7391 582.844L13.8261 568.911L0 559.623L0 538.724L13.8261 506.215L25.3478 482.994L25.3478 455.129L34.5652 436.552L43.7826 429.586L43.7826 392.432L69.1304 350.635L82.9565 341.347L82.9565 311.16L108.304 267.04L135.957 250.785L182.043 224.296L184.348 222.972L187.883 224.153L235.863 222.972L244.261 199.699H274.217L244.261 188.089L251.174 157.902L281.13 116.104L288.043 65.0184L334.13 0L380.217 6.96626L426.304 51.0859L463.174 99.8497L504.652 99.8497L541.522 123.071L557.652 157.902L566.87 188.089L573.783 208.988L596.826 188.089L626.783 199.699L675.174 287.939L700.522 345.991L723.565 496.926L742 571.233L723.565 599.098L702.849 413.331L693.609 345.991L619.87 208.988L596.826 199.699L580.696 218.276L553.044 234.531H532.304L472.391 280.972L532.304 229.887H548.435L573.783 208.988L566.87 188.089L541.522 183.445L516.174 167.19L483.913 123.071L463.174 99.8497L426.304 51.0859L359.478 99.8497L334.13 116.104L320.304 162.546L331.617 123.071L306.478 76.6288L288.043 65.0184L281.13 116.104L251.174 157.902L244.261 188.089L274.217 199.699H244.261L235.863 222.972L239.652 241.497L235.043 260.074L223.522 257.752L221.217 241.497L218.273 238.529L208.698 234.768L182.043 255.429L135.957 250.785L108.304 267.04L82.9565 311.16L82.9565 341.347L69.1304 350.635L50.6957 538.724L20.7391 582.844L82.9565 617.675L82.9565 441.196L161.304 397.077L214.304 341.347Z" fill="#F3F3F3"/>
<path d="M426.304 188.089L306.478 311.16L407.87 234.531L435.522 253.107L463.174 260.074V234.531L500.044 241.497V225.242L463.174 178.801L426.304 188.089Z" fill="#F3F3F3"/>
<path d="M536.913 503.893L486.217 476.028L527.696 510.859L536.913 548.012V503.893Z" fill="#F3F3F3"/>
</svg>
