<svg width="146" height="20" viewBox="0 0 146 20" fill="none" xmlns="http://www.w3.org/2000/svg">
<path d="M27.9125 0V2.83762H15.4899V19.7645H12.4226V2.83762H0V0H27.9125ZM34.9302 0H37.9975V8.41404H58.4369V0H61.5042V19.7645H58.4369V11.2517H37.9975V19.7645H34.9302V0ZM71.6634 8.47051H79.6244V11.294H71.6634V8.47051ZM71.4263 19.7645V16.9269H94.6402V19.7645H71.4263ZM71.4263 2.83762V0H94.32V2.83762H71.4263ZM104.383 0H107.45V19.7645H104.383V0ZM141.959 19.7645L129.563 2.96468L117.225 19.7645H113.92V19.3128L128.072 0H131.111L145.29 19.3128V19.7645H141.959Z" fill="white"/>
</svg>
