<svg style="width:0; height:0; visibility: hidden;" xmlns="http://www.w3.org/2000/svg">
	<symbol id="logo-group" viewBox="0 0 146 35">
		<g>
  			<path d="M27.9125 0V2.83762H15.4899V19.7645H12.4226V2.83762H0V0H27.9125ZM34.9302 0H37.9975V8.41404H58.4369V0H61.5042V19.7645H58.4369V11.2517H37.9975V19.7645H34.9302V0ZM71.6634 8.47051H79.6244V11.294H71.6634V8.47051ZM71.4263 19.7645V16.9269H94.6402V19.7645H71.4263ZM71.4263 2.83762V0H94.32V2.83762H71.4263ZM104.383 0H107.45V19.7645H104.383V0ZM141.959 19.7645L129.563 2.96468L117.225 19.7645H113.92V19.3128L128.072 0H131.111L145.29 19.3128V19.7645H141.959Z" fill="currentColor" />
  
  			<path d="M56.6989 28V28.966H49.9962C49.191 28.966 49.0481 29.1102 49.0481 29.9224V32.806C49.0481 33.6182 49.191 33.7624 49.9962 33.7624H55.6508V31.8304H52.3496V30.8644H56.6989V34.7284H49.7912C48.5145 34.7284 48 34.2045 48 32.9165V29.8118C48 28.5239 48.5145 28 49.7912 28H56.6989ZM63.2814 28C64.5581 28 65.0726 28.5239 65.0726 29.8118V30.0377C65.0726 31.3257 64.5581 31.8448 63.2814 31.8448H61.962L65.3204 34.5746V34.7284H64.0532L59.904 31.3642V30.8836H63.0767C63.8817 30.8836 64.0246 30.7346 64.0246 29.9272V29.9224C64.0246 29.1102 63.8817 28.966 63.0767 28.966H56.3596V28H63.2814ZM74.9936 28C76.2703 28 76.7897 28.5239 76.7897 29.8118V32.9165C76.7897 34.2045 76.2703 34.7284 74.9936 34.7284H70.0114C68.7347 34.7284 68.2202 34.2045 68.2202 32.9165V29.8118C68.2202 28.5239 68.7347 28 70.0114 28H74.9936ZM69.2683 32.806C69.2683 33.6182 69.4112 33.7624 70.2164 33.7624H74.7935C75.5938 33.7624 75.7416 33.6182 75.7416 32.806V29.9224C75.7416 29.1102 75.5938 28.966 74.7935 28.966H70.2164C69.4112 28.966 69.2683 29.1102 69.2683 29.9224V32.806ZM81.1295 34.7284C79.8527 34.7284 79.3336 34.2045 79.3336 32.9165V28H80.3817V32.806C80.3817 33.6182 80.5292 33.7624 81.3296 33.7624H85.5925C86.3974 33.7624 86.5403 33.6182 86.5403 32.806V28H87.5884V32.9165C87.5884 34.2045 87.0739 34.7284 85.7972 34.7284H81.1295ZM89.6494 28H96.6665C97.9432 28 98.4626 28.5239 98.4626 29.8118V30.0377C98.4626 31.3257 97.9432 31.8448 96.6665 31.8448H90.6975V34.7284H89.6494V28ZM90.6975 30.8836H96.4664C97.2667 30.8836 97.4146 30.7346 97.4146 29.9272V29.9224C97.4146 29.1102 97.2667 28.966 96.4664 28.966H90.6975V30.8836Z" fill="currentColor" />

		</g>
	</symbol>
	<symbol id="svg-logo" viewBox="0 0 1286 175">
	<g>
		<path d="M247.144 0V25.125H137.151V175H109.993V25.125H0V0H247.144ZM309.281 0H336.439V74.5H517.414V0H544.573V175H517.414V99.625H336.439V175H309.281V0ZM634.525 75H705.014V100H634.525V75ZM632.426 175V149.875H837.968V175H632.426ZM632.426 25.125V0H835.133V25.125H632.426ZM924.23 0H951.389V175H924.23V0ZM1256.94 175L1147.19 26.25L1037.94 175H1008.68V171L1133.98 0H1160.89L1286.44 171V175H1256.94Z" fill="currentColor" />
	</g>
	</symbol>
	<symbol id="svg-search" viewBox="0 0 15 16">
		<g>
			  <path d="M14.7728 13.7139L10.9028 9.84391C11.6038 8.91492 12.0248 7.76291 12.0248 6.51191C12.0248 3.45191 9.5358 0.961914 6.4748 0.961914C3.4148 0.961914 0.924805 3.45191 0.924805 6.51191C0.924805 9.57291 3.4148 12.0619 6.4748 12.0619C7.7258 12.0619 8.8778 11.6409 9.8068 10.9399L13.6768 14.8099C13.8278 14.9609 14.0268 15.0379 14.2248 15.0379C14.4228 15.0379 14.6208 14.9619 14.7728 14.8099C15.0758 14.5069 15.0758 14.0169 14.7728 13.7139ZM2.0248 6.51191C2.0248 4.05791 4.0218 2.06191 6.4748 2.06191C8.9288 2.06191 10.9248 4.05891 10.9248 6.51191C10.9248 8.96491 8.9288 10.9619 6.4748 10.9619C4.0208 10.9619 2.0248 8.96591 2.0248 6.51191Z" fill="currentColor" />

		</g>
	</symbol>
	<symbol id="svg-cart" viewBox="0 0 18 16">
		<g>
	 		<path d="M0.75 0.25C0.336914 0.25 0 0.586914 0 1C0 1.41309 0.336914 1.75 0.75 1.75H2.41406L4.38281 9.625C4.5498 10.293 5.14746 10.75 5.83594 10.75H14.4375C15.1143 10.75 15.6885 10.3018 15.8672 9.64844L17.8125 2.5H5.25L5.625 4H15.8672L14.4375 9.25H5.83594L3.86719 1.375C3.7002 0.707031 3.10254 0.25 2.41406 0.25H0.75ZM13.5 10.75C12.2666 10.75 11.25 11.7666 11.25 13C11.25 14.2334 12.2666 15.25 13.5 15.25C14.7334 15.25 15.75 14.2334 15.75 13C15.75 11.7666 14.7334 10.75 13.5 10.75ZM6.75 10.75C5.5166 10.75 4.5 11.7666 4.5 13C4.5 14.2334 5.5166 15.25 6.75 15.25C7.9834 15.25 9 14.2334 9 13C9 11.7666 7.9834 10.75 6.75 10.75ZM6.75 12.25C7.17188 12.25 7.5 12.5781 7.5 13C7.5 13.4219 7.17188 13.75 6.75 13.75C6.32812 13.75 6 13.4219 6 13C6 12.5781 6.32812 12.25 6.75 12.25ZM13.5 12.25C13.9219 12.25 14.25 12.5781 14.25 13C14.25 13.4219 13.9219 13.75 13.5 13.75C13.0781 13.75 12.75 13.4219 12.75 13C12.75 12.5781 13.0781 12.25 13.5 12.25Z" fill="currentColor"/>
		</g>
	</symbol>
	<symbol id="svg-arrow-left" viewBox="0 0 48 12">
		<g>
  			<path d="M0 6L10 11.7735V0.226497L0 6ZM9 7L48 7V5L9 5V7Z" fill="currentColor" />
		</g>
	</symbol>
	<symbol id="svg-arrow-right" viewBox="0 0 48 12">
		<g>
  			<path d="M48 6L38 0.226495L38 11.7735L48 6ZM39 5L1.99002e-07 4.99999L-1.99002e-07 6.99999L39 7L39 5Z" fill="currentColor" />
		</g>
	</symbol>
	<symbol id="svg-carret" viewBox="0 0 17 10">
		<g>
  			<path d="M8.3844 7.61949L15.4474 0.00185977L16.5 1.10913L8.3844 10L0.5 1.10918L1.55263 0L8.3844 7.61949Z" fill="currentColor" />
		</g>
	</symbol>
	<symbol id="svg-plus" viewBox="0 0 17 16">
		<g>
  			 <rect x="0.5" y="7" width="16" height="2" fill="currentColor" />
  			 <rect x="7.5" y="16" width="16" height="2" transform="rotate(-90 7.5 16)" fill="currentColor" />
		</g>
	</symbol>
	<symbol id="svg-phone" viewBox="0 0 16 16">
		<g>
			
  			<path d="M3.86915 0.6875C3.57472 0.6875 3.28468 0.792969 3.04298 0.986328L3.00782 1.00391L2.99024 1.02148L1.23243 2.83203L1.25001 2.84961C0.707284 3.35059 0.540292 4.09985 0.7754 4.74805C0.777597 4.75244 0.773203 4.76123 0.7754 4.76562C1.25221 6.13013 2.47169 8.76465 4.85352 11.1465C7.24415 13.5371 9.91383 14.7083 11.2344 15.2246H11.252C11.9353 15.4531 12.6758 15.2905 13.2031 14.8379L14.9785 13.0625C15.4443 12.5967 15.4443 11.7881 14.9785 11.3223L12.6934 9.03711L12.6758 9.00195C12.21 8.53613 11.3838 8.53613 10.918 9.00195L9.79298 10.127C9.38648 9.9314 8.41749 9.43042 7.49024 8.54492C6.56959 7.66602 6.09937 6.65527 5.92579 6.25977L7.05079 5.13477C7.5232 4.66235 7.53199 3.87573 7.03321 3.41211L7.05079 3.39453L6.99806 3.3418L4.74806 1.02148L4.73048 1.00391L4.69532 0.986328C4.45362 0.792969 4.16358 0.6875 3.86915 0.6875ZM3.86915 1.8125C3.9109 1.8125 3.95265 1.83228 3.9922 1.86523L6.2422 4.16797L6.29493 4.2207C6.29054 4.21631 6.32789 4.27563 6.25977 4.34375L4.85352 5.75L4.58985 5.99609L4.7129 6.34766C4.7129 6.34766 5.3589 8.0769 6.71681 9.37109L6.83985 9.47656C8.14723 10.6697 9.68751 11.3223 9.68751 11.3223L10.0391 11.4805L11.709 9.81055C11.8057 9.71387 11.7881 9.71387 11.8848 9.81055L14.1875 12.1133C14.2842 12.21 14.2842 12.1748 14.1875 12.2715L12.4649 13.9941C12.2056 14.2161 11.9309 14.2622 11.6035 14.1523C10.3291 13.6514 7.85279 12.5637 5.64454 10.3555C3.41871 8.12964 2.25636 5.60498 1.83009 4.37891C1.74439 4.15039 1.80592 3.81201 2.00587 3.64062L2.04102 3.60547L3.7461 1.86523C3.78565 1.83228 3.8274 1.8125 3.86915 1.8125Z" fill="currentColor" />

		</g>
	</symbol>
	<symbol id="svg-email" viewBox="0 0 16 9">
		<g>
			
 			 <path d="M0.6875 0V9H15.3125V0H0.6875ZM3.11328 1H12.8867L8 3.89062L3.11328 1ZM1.8125 1.4375L7.68359 4.92188L8 5.09375L8.31641 4.92188L14.1875 1.4375V8H1.8125V1.4375Z" fill="currentColor" />

		</g>
	</symbol>
	<!-- <symbol id="svg-phone" viewBox="0 0 15px 14px">
	   <g>
	   		<path d="M3.78701 1.97949C3.558 1.97949 3.33242 2.06152 3.14443 2.21191L3.11709 2.22559L3.10341 2.23926L1.73623 3.64746L1.7499 3.66113C1.32778 4.05078 1.1979 4.63354 1.38076 5.1377C1.38247 5.14111 1.37905 5.14795 1.38076 5.15137C1.75161 6.21265 2.70009 8.26172 4.55263 10.1143C6.41201 11.9736 8.48842 12.8845 9.51552 13.2861H9.5292C10.0607 13.4639 10.6366 13.3374 11.0468 12.9854L12.4276 11.6045C12.7899 11.2422 12.7899 10.6133 12.4276 10.251L10.6503 8.47363L10.6366 8.44629C10.2743 8.08398 9.63173 8.08398 9.26943 8.44629L8.39443 9.32129C8.07827 9.16919 7.32461 8.77954 6.60341 8.09082C5.88735 7.40723 5.52163 6.62109 5.38662 6.31348L6.26162 5.43848C6.62905 5.07104 6.63588 4.45923 6.24795 4.09863L6.26162 4.08496L6.2206 4.04395L4.4706 2.23926L4.45693 2.22559L4.42959 2.21191C4.2416 2.06152 4.01601 1.97949 3.78701 1.97949ZM3.78701 2.85449C3.81948 2.85449 3.85195 2.86987 3.88271 2.89551L5.63271 4.68652L5.67373 4.72754C5.67031 4.72412 5.69936 4.77026 5.64638 4.82324L4.55263 5.91699L4.34755 6.1084L4.44326 6.38184C4.44326 6.38184 4.9457 7.72681 6.00185 8.7334L6.09755 8.81543C7.1144 9.74341 8.3124 10.251 8.3124 10.251L8.58584 10.374L9.88466 9.0752C9.95986 9 9.94619 9 10.0214 9.0752L11.8124 10.8662C11.8876 10.9414 11.8876 10.9141 11.8124 10.9893L10.4726 12.3291C10.2709 12.5017 10.0573 12.5376 9.80263 12.4521C8.81142 12.0625 6.8854 11.2166 5.16787 9.49902C3.43667 7.76782 2.53261 5.8042 2.20107 4.85059C2.13442 4.67285 2.18227 4.40967 2.33779 4.27637L2.36513 4.24902L3.6913 2.89551C3.72207 2.86987 3.75454 2.85449 3.78701 2.85449Z" fill="currentColor"/>
	   </g>
	</symbol> -->
	</svg>
