<svg width="14" height="15" viewBox="0 0 14 15" fill="none" xmlns="http://www.w3.org/2000/svg">
<path d="M3.78701 1.97949C3.558 1.97949 3.33242 2.06152 3.14443 2.21191L3.11709 2.22559L3.10341 2.23926L1.73623 3.64746L1.7499 3.66113C1.32778 4.05078 1.1979 4.63354 1.38076 5.1377C1.38247 5.14111 1.37905 5.14795 1.38076 5.15137C1.75161 6.21265 2.70009 8.26172 4.55263 10.1143C6.41201 11.9736 8.48842 12.8845 9.51552 13.2861H9.5292C10.0607 13.4639 10.6366 13.3374 11.0468 12.9854L12.4276 11.6045C12.7899 11.2422 12.7899 10.6133 12.4276 10.251L10.6503 8.47363L10.6366 8.44629C10.2743 8.08398 9.63173 8.08398 9.26943 8.44629L8.39443 9.32129C8.07827 9.16919 7.32461 8.77954 6.60341 8.09082C5.88735 7.40723 5.52163 6.62109 5.38662 6.31348L6.26162 5.43848C6.62905 5.07104 6.63588 4.45923 6.24795 4.09863L6.26162 4.08496L6.2206 4.04395L4.4706 2.23926L4.45693 2.22559L4.42959 2.21191C4.2416 2.06152 4.01601 1.97949 3.78701 1.97949ZM3.78701 2.85449C3.81948 2.85449 3.85195 2.86987 3.88271 2.89551L5.63271 4.68652L5.67373 4.72754C5.67031 4.72412 5.69936 4.77026 5.64638 4.82324L4.55263 5.91699L4.34755 6.1084L4.44326 6.38184C4.44326 6.38184 4.9457 7.72681 6.00185 8.7334L6.09755 8.81543C7.1144 9.74341 8.3124 10.251 8.3124 10.251L8.58584 10.374L9.88466 9.0752C9.95986 9 9.94619 9 10.0214 9.0752L11.8124 10.8662C11.8876 10.9414 11.8876 10.9141 11.8124 10.9893L10.4726 12.3291C10.2709 12.5017 10.0573 12.5376 9.80263 12.4521C8.81142 12.0625 6.8854 11.2166 5.16787 9.49902C3.43667 7.76782 2.53261 5.8042 2.20107 4.85059C2.13442 4.67285 2.18227 4.40967 2.33779 4.27637L2.36513 4.24902L3.6913 2.89551C3.72207 2.86987 3.75454 2.85449 3.78701 2.85449Z" fill="#222222"/>
</svg>
