<svg width="19" height="18" viewBox="0 0 19 18" fill="none" xmlns="http://www.w3.org/2000/svg">
<path d="M7.77273 0C7.32067 0 6.85849 0.137695 6.53125 0.421875C6.20401 0.706055 6.04545 1.10742 6.04545 1.5V2.25H0V3.75H0.944602L2.59091 17.3203L2.67188 18H16.3281L16.4091 17.3203L18.0554 3.75H19V2.25H12.9545V1.5C12.9545 1.10742 12.796 0.706055 12.4688 0.421875C12.1415 0.137695 11.6793 0 11.2273 0H7.77273ZM7.77273 1.5H11.2273V2.25H7.77273V1.5ZM2.69886 3.75H16.3011L14.7628 16.5H4.23722L2.69886 3.75ZM6.04545 6V14.25H7.77273V6H6.04545ZM8.63636 6V14.25H10.3636V6H8.63636ZM11.2273 6V14.25H12.9545V6H11.2273Z" fill="#2B2A29"/>
</svg>
