<svg style="width:0; height:0; visibility: hidden;" xmlns="http://www.w3.org/2000/svg">
	<symbol id="logo-group" viewBox="0 0 146 35">
		<g>
  			<path d="M27.9125 0V2.83762H15.4899V19.7645H12.4226V2.83762H0V0H27.9125ZM34.9302 0H37.9975V8.41404H58.4369V0H61.5042V19.7645H58.4369V11.2517H37.9975V19.7645H34.9302V0ZM71.6634 8.47051H79.6244V11.294H71.6634V8.47051ZM71.4263 19.7645V16.9269H94.6402V19.7645H71.4263ZM71.4263 2.83762V0H94.32V2.83762H71.4263ZM104.383 0H107.45V19.7645H104.383V0ZM141.959 19.7645L129.563 2.96468L117.225 19.7645H113.92V19.3128L128.072 0H131.111L145.29 19.3128V19.7645H141.959Z" fill="currentColor" />
  
  			<path d="M56.6989 28V28.966H49.9962C49.191 28.966 49.0481 29.1102 49.0481 29.9224V32.806C49.0481 33.6182 49.191 33.7624 49.9962 33.7624H55.6508V31.8304H52.3496V30.8644H56.6989V34.7284H49.7912C48.5145 34.7284 48 34.2045 48 32.9165V29.8118C48 28.5239 48.5145 28 49.7912 28H56.6989ZM63.2814 28C64.5581 28 65.0726 28.5239 65.0726 29.8118V30.0377C65.0726 31.3257 64.5581 31.8448 63.2814 31.8448H61.962L65.3204 34.5746V34.7284H64.0532L59.904 31.3642V30.8836H63.0767C63.8817 30.8836 64.0246 30.7346 64.0246 29.9272V29.9224C64.0246 29.1102 63.8817 28.966 63.0767 28.966H56.3596V28H63.2814ZM74.9936 28C76.2703 28 76.7897 28.5239 76.7897 29.8118V32.9165C76.7897 34.2045 76.2703 34.7284 74.9936 34.7284H70.0114C68.7347 34.7284 68.2202 34.2045 68.2202 32.9165V29.8118C68.2202 28.5239 68.7347 28 70.0114 28H74.9936ZM69.2683 32.806C69.2683 33.6182 69.4112 33.7624 70.2164 33.7624H74.7935C75.5938 33.7624 75.7416 33.6182 75.7416 32.806V29.9224C75.7416 29.1102 75.5938 28.966 74.7935 28.966H70.2164C69.4112 28.966 69.2683 29.1102 69.2683 29.9224V32.806ZM81.1295 34.7284C79.8527 34.7284 79.3336 34.2045 79.3336 32.9165V28H80.3817V32.806C80.3817 33.6182 80.5292 33.7624 81.3296 33.7624H85.5925C86.3974 33.7624 86.5403 33.6182 86.5403 32.806V28H87.5884V32.9165C87.5884 34.2045 87.0739 34.7284 85.7972 34.7284H81.1295ZM89.6494 28H96.6665C97.9432 28 98.4626 28.5239 98.4626 29.8118V30.0377C98.4626 31.3257 97.9432 31.8448 96.6665 31.8448H90.6975V34.7284H89.6494V28ZM90.6975 30.8836H96.4664C97.2667 30.8836 97.4146 30.7346 97.4146 29.9272V29.9224C97.4146 29.1102 97.2667 28.966 96.4664 28.966H90.6975V30.8836Z" fill="currentColor" />

		</g>
	</symbol>
	<symbol id="svg-logo" viewBox="0 0 1286 175">
	<g>
		<path d="M247.144 0V25.125H137.151V175H109.993V25.125H0V0H247.144ZM309.281 0H336.439V74.5H517.414V0H544.573V175H517.414V99.625H336.439V175H309.281V0ZM634.525 75H705.014V100H634.525V75ZM632.426 175V149.875H837.968V175H632.426ZM632.426 25.125V0H835.133V25.125H632.426ZM924.23 0H951.389V175H924.23V0ZM1256.94 175L1147.19 26.25L1037.94 175H1008.68V171L1133.98 0H1160.89L1286.44 171V175H1256.94Z" fill="currentColor" />
	</g>
	</symbol>
	<symbol id="svg-search" viewBox="0 0 15 16">
		<g>
			  <path d="M14.7728 13.7139L10.9028 9.84391C11.6038 8.91492 12.0248 7.76291 12.0248 6.51191C12.0248 3.45191 9.5358 0.961914 6.4748 0.961914C3.4148 0.961914 0.924805 3.45191 0.924805 6.51191C0.924805 9.57291 3.4148 12.0619 6.4748 12.0619C7.7258 12.0619 8.8778 11.6409 9.8068 10.9399L13.6768 14.8099C13.8278 14.9609 14.0268 15.0379 14.2248 15.0379C14.4228 15.0379 14.6208 14.9619 14.7728 14.8099C15.0758 14.5069 15.0758 14.0169 14.7728 13.7139ZM2.0248 6.51191C2.0248 4.05791 4.0218 2.06191 6.4748 2.06191C8.9288 2.06191 10.9248 4.05891 10.9248 6.51191C10.9248 8.96491 8.9288 10.9619 6.4748 10.9619C4.0208 10.9619 2.0248 8.96591 2.0248 6.51191Z" fill="currentColor" />

		</g>
	</symbol>
	<symbol id="svg-cart" viewBox="0 0 18 16">
		<g>
	 		<path d="M0.75 0.25C0.336914 0.25 0 0.586914 0 1C0 1.41309 0.336914 1.75 0.75 1.75H2.41406L4.38281 9.625C4.5498 10.293 5.14746 10.75 5.83594 10.75H14.4375C15.1143 10.75 15.6885 10.3018 15.8672 9.64844L17.8125 2.5H5.25L5.625 4H15.8672L14.4375 9.25H5.83594L3.86719 1.375C3.7002 0.707031 3.10254 0.25 2.41406 0.25H0.75ZM13.5 10.75C12.2666 10.75 11.25 11.7666 11.25 13C11.25 14.2334 12.2666 15.25 13.5 15.25C14.7334 15.25 15.75 14.2334 15.75 13C15.75 11.7666 14.7334 10.75 13.5 10.75ZM6.75 10.75C5.5166 10.75 4.5 11.7666 4.5 13C4.5 14.2334 5.5166 15.25 6.75 15.25C7.9834 15.25 9 14.2334 9 13C9 11.7666 7.9834 10.75 6.75 10.75ZM6.75 12.25C7.17188 12.25 7.5 12.5781 7.5 13C7.5 13.4219 7.17188 13.75 6.75 13.75C6.32812 13.75 6 13.4219 6 13C6 12.5781 6.32812 12.25 6.75 12.25ZM13.5 12.25C13.9219 12.25 14.25 12.5781 14.25 13C14.25 13.4219 13.9219 13.75 13.5 13.75C13.0781 13.75 12.75 13.4219 12.75 13C12.75 12.5781 13.0781 12.25 13.5 12.25Z" fill="currentColor"/>
		</g>
	</symbol>
	<symbol id="svg-arrow-left" viewBox="0 0 48 12">
		<g>
  			<path d="M0 6L10 11.7735V0.226497L0 6ZM9 7L48 7V5L9 5V7Z" fill="currentColor" />
		</g>
	</symbol>
	<symbol id="svg-arrow-right" viewBox="0 0 48 12">
		<g>
  			<path d="M48 6L38 0.226495L38 11.7735L48 6ZM39 5L1.99002e-07 4.99999L-1.99002e-07 6.99999L39 7L39 5Z" fill="currentColor" />
		</g>
	</symbol>
	<symbol id="svg-carret" viewBox="0 0 17 10">
		<g>
  			<path d="M8.3844 7.61949L15.4474 0.00185977L16.5 1.10913L8.3844 10L0.5 1.10918L1.55263 0L8.3844 7.61949Z" fill="currentColor" />
		</g>
	</symbol>
	<symbol id="svg-plus" viewBox="0 0 17 16">
		<g>
  			 <rect x="0.5" y="7" width="16" height="2" fill="currentColor" />
  			 <rect x="7.5" y="16" width="16" height="2" transform="rotate(-90 7.5 16)" fill="currentColor" />
		</g>
	</symbol>
	<symbol id="svg-phone" viewBox="0 0 16 16">
		<g>
			
  			<path d="M3.86915 0.6875C3.57472 0.6875 3.28468 0.792969 3.04298 0.986328L3.00782 1.00391L2.99024 1.02148L1.23243 2.83203L1.25001 2.84961C0.707284 3.35059 0.540292 4.09985 0.7754 4.74805C0.777597 4.75244 0.773203 4.76123 0.7754 4.76562C1.25221 6.13013 2.47169 8.76465 4.85352 11.1465C7.24415 13.5371 9.91383 14.7083 11.2344 15.2246H11.252C11.9353 15.4531 12.6758 15.2905 13.2031 14.8379L14.9785 13.0625C15.4443 12.5967 15.4443 11.7881 14.9785 11.3223L12.6934 9.03711L12.6758 9.00195C12.21 8.53613 11.3838 8.53613 10.918 9.00195L9.79298 10.127C9.38648 9.9314 8.41749 9.43042 7.49024 8.54492C6.56959 7.66602 6.09937 6.65527 5.92579 6.25977L7.05079 5.13477C7.5232 4.66235 7.53199 3.87573 7.03321 3.41211L7.05079 3.39453L6.99806 3.3418L4.74806 1.02148L4.73048 1.00391L4.69532 0.986328C4.45362 0.792969 4.16358 0.6875 3.86915 0.6875ZM3.86915 1.8125C3.9109 1.8125 3.95265 1.83228 3.9922 1.86523L6.2422 4.16797L6.29493 4.2207C6.29054 4.21631 6.32789 4.27563 6.25977 4.34375L4.85352 5.75L4.58985 5.99609L4.7129 6.34766C4.7129 6.34766 5.3589 8.0769 6.71681 9.37109L6.83985 9.47656C8.14723 10.6697 9.68751 11.3223 9.68751 11.3223L10.0391 11.4805L11.709 9.81055C11.8057 9.71387 11.7881 9.71387 11.8848 9.81055L14.1875 12.1133C14.2842 12.21 14.2842 12.1748 14.1875 12.2715L12.4649 13.9941C12.2056 14.2161 11.9309 14.2622 11.6035 14.1523C10.3291 13.6514 7.85279 12.5637 5.64454 10.3555C3.41871 8.12964 2.25636 5.60498 1.83009 4.37891C1.74439 4.15039 1.80592 3.81201 2.00587 3.64062L2.04102 3.60547L3.7461 1.86523C3.78565 1.83228 3.8274 1.8125 3.86915 1.8125Z" fill="currentColor" />

		</g>
	</symbol>
	<symbol id="svg-email" viewBox="0 0 16 9">
		<g>
			
 			 <path d="M0.6875 0V9H15.3125V0H0.6875ZM3.11328 1H12.8867L8 3.89062L3.11328 1ZM1.8125 1.4375L7.68359 4.92188L8 5.09375L8.31641 4.92188L14.1875 1.4375V8H1.8125V1.4375Z" fill="currentColor" />

		</g>
	</symbol>
	 <symbol id="svg-cross" viewBox="0 0 24 24">
	   <g>
	   	 <path d="M7.50041 6.97034C7.5697 6.9005 7.65202 6.84508 7.74265 6.80727C7.83327 6.76946 7.93043 6.75 8.02855 6.75C8.12667 6.75 8.22383 6.76946 8.31446 6.80727C8.40508 6.84508 8.4874 6.9005 8.5567 6.97034L12.5044 10.9408L16.452 6.97034C16.5214 6.90061 16.6037 6.84529 16.6943 6.80756C16.785 6.76982 16.8821 6.75039 16.9802 6.75039C17.0782 6.75039 17.1754 6.76982 17.266 6.80756C17.3566 6.84529 17.439 6.90061 17.5083 6.97034C17.5777 7.04007 17.6327 7.12286 17.6702 7.21396C17.7078 7.30507 17.7271 7.40272 17.7271 7.50134C17.7271 7.59996 17.7078 7.69761 17.6702 7.78872C17.6327 7.87982 17.5777 7.96261 17.5083 8.03234L13.5592 12.0013L17.5083 15.9703C17.5777 16.0401 17.6327 16.1229 17.6702 16.214C17.7078 16.3051 17.7271 16.4027 17.7271 16.5013C17.7271 16.6 17.7078 16.6976 17.6702 16.7887C17.6327 16.8798 17.5777 16.9626 17.5083 17.0323C17.439 17.1021 17.3566 17.1574 17.266 17.1951C17.1754 17.2329 17.0782 17.2523 16.9802 17.2523C16.8821 17.2523 16.785 17.2329 16.6943 17.1951C16.6037 17.1574 16.5214 17.1021 16.452 17.0323L12.5044 13.0618L8.5567 17.0323C8.48734 17.1021 8.405 17.1574 8.31438 17.1951C8.22376 17.2329 8.12664 17.2523 8.02855 17.2523C7.93047 17.2523 7.83334 17.2329 7.74272 17.1951C7.6521 17.1574 7.56976 17.1021 7.50041 17.0323C7.43105 16.9626 7.37603 16.8798 7.3385 16.7887C7.30096 16.6976 7.28164 16.6 7.28164 16.5013C7.28164 16.4027 7.30096 16.3051 7.3385 16.214C7.37603 16.1229 7.43105 16.0401 7.50041 15.9703L11.4496 12.0013L7.50041 8.03234C7.43094 7.96267 7.37582 7.87991 7.33821 7.78879C7.30061 7.69767 7.28125 7.59999 7.28125 7.50134C7.28125 7.40269 7.30061 7.30501 7.33821 7.21389C7.37582 7.12277 7.43094 7.04001 7.50041 6.97034Z" fill="currentColor" />

	   </g>
	</symbol>
	<symbol id="svg-catalogy" viewBox="0 0 22 22">
		<g>
		
			<path d="M18.1225 10.3112H14.4192C12.5767 10.3112 11.6875 9.49537 11.6875 7.8087V3.64703C11.6875 1.96036 12.5858 1.14453 14.4192 1.14453H18.1225C19.965 1.14453 20.8542 1.96036 20.8542 3.64703V7.79953C20.8542 9.49537 19.9558 10.3112 18.1225 10.3112ZM14.4192 2.51953C13.1908 2.51953 13.0625 2.86786 13.0625 3.64703V7.79953C13.0625 8.58786 13.1908 8.92703 14.4192 8.92703H18.1225C19.3508 8.92703 19.4792 8.5787 19.4792 7.79953V3.64703C19.4792 2.8587 19.3508 2.51953 18.1225 2.51953H14.4192Z" fill="currentColor" />
			<path d="M18.1225 20.8542H14.4192C12.5767 20.8542 11.6875 19.9558 11.6875 18.1225V14.4192C11.6875 12.5767 12.5858 11.6875 14.4192 11.6875H18.1225C19.965 11.6875 20.8542 12.5858 20.8542 14.4192V18.1225C20.8542 19.9558 19.9558 20.8542 18.1225 20.8542ZM14.4192 13.0625C13.3375 13.0625 13.0625 13.3375 13.0625 14.4192V18.1225C13.0625 19.2042 13.3375 19.4792 14.4192 19.4792H18.1225C19.2042 19.4792 19.4792 19.2042 19.4792 18.1225V14.4192C19.4792 13.3375 19.2042 13.0625 18.1225 13.0625H14.4192Z" fill="currentColor" />
			<path d="M7.58344 10.3112H3.8801C2.0376 10.3112 1.14844 9.49537 1.14844 7.8087V3.64703C1.14844 1.96036 2.04677 1.14453 3.8801 1.14453H7.58344C9.42594 1.14453 10.3151 1.96036 10.3151 3.64703V7.79953C10.3151 9.49537 9.41677 10.3112 7.58344 10.3112ZM3.8801 2.51953C2.65177 2.51953 2.52344 2.86786 2.52344 3.64703V7.79953C2.52344 8.58786 2.65177 8.92703 3.8801 8.92703H7.58344C8.81177 8.92703 8.9401 8.5787 8.9401 7.79953V3.64703C8.9401 2.8587 8.81177 2.51953 7.58344 2.51953H3.8801Z" fill="currentColor" />
			<path d="M7.58344 20.8542H3.8801C2.0376 20.8542 1.14844 19.9558 1.14844 18.1225V14.4192C1.14844 12.5767 2.04677 11.6875 3.8801 11.6875H7.58344C9.42594 11.6875 10.3151 12.5858 10.3151 14.4192V18.1225C10.3151 19.9558 9.41677 20.8542 7.58344 20.8542ZM3.8801 13.0625C2.79844 13.0625 2.52344 13.3375 2.52344 14.4192V18.1225C2.52344 19.2042 2.79844 19.4792 3.8801 19.4792H7.58344C8.6651 19.4792 8.9401 19.2042 8.9401 18.1225V14.4192C8.9401 13.3375 8.6651 13.0625 7.58344 13.0625H3.8801Z" fill="currentColor" />
			
		</g>
	</symbol>
	
	<mask id="path-1-outside-1_1152_8949" maskUnits="userSpaceOnUse" x="0" y="0" width="20" height="23" fill="black">
    <rect fill="white" width="20" height="23" />
    <path fill-rule="evenodd" clip-rule="evenodd" d="M15.7784 6.25H16.7501V7.20452H15.7784C15.5359 10.1442 13.0732 12.4543 10.0709 12.4543C7.06864 12.4543 4.60594 10.1442 4.36336 7.20452H3.38672V6.25H4.36334C4.60581 3.31023 7.06856 1 10.0709 1C13.0732 1 15.536 3.31023 15.7784 6.25ZM5.32185 7.20452C5.56136 9.61623 7.59617 11.4998 10.0709 11.4998C12.5456 11.4998 14.5804 9.61623 14.8199 7.20452H5.32185ZM5.32183 6.25H14.82C14.5806 3.83818 12.5457 1.95452 10.0709 1.95452C7.59609 1.95452 5.56123 3.83818 5.32183 6.25ZM6.73622 14.5996C7.75269 14.1413 8.88055 13.8862 10.068 13.8862C11.256 13.8862 12.3844 14.1415 13.4013 14.6003C13.2795 16.3346 11.834 17.7037 10.0688 17.7037C8.30331 17.7037 6.85768 16.3342 6.73622 14.5996ZM5.8327 15.078C3.50639 16.5044 1.95452 19.0708 1.95452 21.9996H1C1 16.9915 5.05987 12.9316 10.068 12.9316C15.0761 12.9316 19.136 16.9915 19.136 21.9996H18.1814C18.1814 19.0714 16.6302 16.5055 14.3047 15.0789C13.9639 17.1103 12.1971 18.6582 10.0688 18.6582C7.94018 18.6582 6.17321 17.1098 5.8327 15.078Z" />
  </mask>
	
	<symbol id="svg-user" viewBox="0 0 20 23">
		<g>
  
			<path fill-rule="evenodd" clip-rule="evenodd" d="M15.7784 6.25H16.7501V7.20452H15.7784C15.5359 10.1442 13.0732 12.4543 10.0709 12.4543C7.06864 12.4543 4.60594 10.1442 4.36336 7.20452H3.38672V6.25H4.36334C4.60581 3.31023 7.06856 1 10.0709 1C13.0732 1 15.536 3.31023 15.7784 6.25ZM5.32185 7.20452C5.56136 9.61623 7.59617 11.4998 10.0709 11.4998C12.5456 11.4998 14.5804 9.61623 14.8199 7.20452H5.32185ZM5.32183 6.25H14.82C14.5806 3.83818 12.5457 1.95452 10.0709 1.95452C7.59609 1.95452 5.56123 3.83818 5.32183 6.25ZM6.73622 14.5996C7.75269 14.1413 8.88055 13.8862 10.068 13.8862C11.256 13.8862 12.3844 14.1415 13.4013 14.6003C13.2795 16.3346 11.834 17.7037 10.0688 17.7037C8.30331 17.7037 6.85768 16.3342 6.73622 14.5996ZM5.8327 15.078C3.50639 16.5044 1.95452 19.0708 1.95452 21.9996H1C1 16.9915 5.05987 12.9316 10.068 12.9316C15.0761 12.9316 19.136 16.9915 19.136 21.9996H18.1814C18.1814 19.0714 16.6302 16.5055 14.3047 15.0789C13.9639 17.1103 12.1971 18.6582 10.0688 18.6582C7.94018 18.6582 6.17321 17.1098 5.8327 15.078Z" fill="currentColor" />
			<path d="M16.7501 6.25H17.0501V5.95H16.7501V6.25ZM15.7784 6.25L15.4795 6.27466L15.5022 6.55H15.7784V6.25ZM16.7501 7.20452V7.50452H17.0501V7.20452H16.7501ZM15.7784 7.20452V6.90452H15.5022L15.4794 7.17985L15.7784 7.20452ZM4.36336 7.20452L4.66235 7.17985L4.63963 6.90452H4.36336V7.20452ZM3.38672 7.20452H3.08672V7.50452H3.38672V7.20452ZM3.38672 6.25V5.95H3.08672V6.25H3.38672ZM4.36334 6.25V6.55H4.63962L4.66233 6.27466L4.36334 6.25ZM5.32185 7.20452V6.90452H4.99058L5.02332 7.23417L5.32185 7.20452ZM14.8199 7.20452L15.1185 7.23417L15.1512 6.90452H14.8199V7.20452ZM14.82 6.25V6.55H15.1512L15.1185 6.22037L14.82 6.25ZM5.32183 6.25L5.02329 6.22037L4.99057 6.55H5.32183V6.25ZM6.73622 14.5996L6.6129 14.3261L6.42236 14.4121L6.43696 14.6206L6.73622 14.5996ZM13.4013 14.6003L13.7006 14.6213L13.7152 14.4128L13.5247 14.3269L13.4013 14.6003ZM1.95452 21.9996V22.2996H2.25452V21.9996H1.95452ZM5.8327 15.078L6.12858 15.0284L6.05506 14.5897L5.67588 14.8222L5.8327 15.078ZM1 21.9996H0.7V22.2996H1V21.9996ZM19.136 21.9996V22.2996H19.436V21.9996H19.136ZM18.1814 21.9996H17.8814V22.2996H18.1814V21.9996ZM14.3047 15.0789L14.4616 14.8232L14.0825 14.5906L14.0089 15.0292L14.3047 15.0789ZM16.7501 5.95H15.7784V6.55H16.7501V5.95ZM17.0501 7.20452V6.25H16.4501V7.20452H17.0501ZM15.7784 7.50452H16.7501V6.90452H15.7784V7.50452ZM15.4794 7.17985C15.2496 9.96521 12.9157 12.1543 10.0709 12.1543V12.7543C13.2306 12.7543 15.8221 10.3231 16.0774 7.2292L15.4794 7.17985ZM10.0709 12.1543C7.22605 12.1543 4.89219 9.96521 4.66235 7.17985L4.06438 7.2292C4.31969 10.3231 6.91123 12.7543 10.0709 12.7543V12.1543ZM3.38672 7.50452H4.36336V6.90452H3.38672V7.50452ZM3.08672 6.25V7.20452H3.68672V6.25H3.08672ZM4.36334 5.95H3.38672V6.55H4.36334V5.95ZM4.66233 6.27466C4.89207 3.4892 7.22598 1.3 10.0709 1.3V0.7C6.91114 0.7 4.31955 3.13127 4.06436 6.22534L4.66233 6.27466ZM10.0709 1.3C12.9158 1.3 15.2497 3.4892 15.4795 6.27466L16.0774 6.22534C15.8222 3.13127 13.2306 0.7 10.0709 0.7V1.3ZM5.02332 7.23417C5.27791 9.79779 7.44043 11.7998 10.0709 11.7998V11.1998C7.7519 11.1998 5.8448 9.43466 5.62038 7.17488L5.02332 7.23417ZM10.0709 11.7998C12.7014 11.7998 14.8639 9.79779 15.1185 7.23417L14.5214 7.17488C14.297 9.43466 12.3899 11.1998 10.0709 11.1998V11.7998ZM5.32185 7.50452H14.8199V6.90452H5.32185V7.50452ZM14.82 5.95H5.32183V6.55H14.82V5.95ZM15.1185 6.22037C14.864 3.65663 12.7014 1.65452 10.0709 1.65452V2.25452C12.39 2.25452 14.2971 4.01974 14.5214 6.27963L15.1185 6.22037ZM10.0709 1.65452C7.44034 1.65452 5.27777 3.65663 5.02329 6.22037L5.62036 6.27963C5.84468 4.01974 7.75183 2.25452 10.0709 2.25452V1.65452ZM10.068 13.5862C8.83719 13.5862 7.66737 13.8506 6.6129 14.3261L6.85955 14.8731C7.83802 14.4319 8.9239 14.1862 10.068 14.1862V13.5862ZM13.5247 14.3269C12.4698 13.8509 11.2994 13.5862 10.068 13.5862V14.1862C11.2127 14.1862 12.2991 14.4321 13.2779 14.8738L13.5247 14.3269ZM10.0688 18.0037C11.9927 18.0037 13.5678 16.5116 13.7006 14.6213L13.1021 14.5793C12.9912 16.1575 11.6754 17.4037 10.0688 17.4037V18.0037ZM6.43696 14.6206C6.56934 16.5112 8.14465 18.0037 10.0688 18.0037V17.4037C8.46197 17.4037 7.14602 16.1572 7.03549 14.5787L6.43696 14.6206ZM2.25452 21.9996C2.25452 19.1794 3.74845 16.7079 5.98952 15.3337L5.67588 14.8222C3.26433 16.301 1.65452 18.9622 1.65452 21.9996H2.25452ZM1 22.2996H1.95452V21.6996H1V22.2996ZM10.068 12.6316C4.89419 12.6316 0.7 16.8258 0.7 21.9996H1.3C1.3 17.1572 5.22556 13.2316 10.068 13.2316V12.6316ZM19.436 21.9996C19.436 16.8258 15.2418 12.6316 10.068 12.6316V13.2316C14.9104 13.2316 18.836 17.1572 18.836 21.9996H19.436ZM18.1814 22.2996H19.136V21.6996H18.1814V22.2996ZM14.1479 15.3346C16.3881 16.709 17.8814 19.18 17.8814 21.9996H18.4814C18.4814 18.9628 16.8723 16.3021 14.4616 14.8232L14.1479 15.3346ZM10.0688 18.9582C12.346 18.9582 14.2359 17.3021 14.6006 15.1285L14.0089 15.0292C13.6918 16.9185 12.0482 18.3582 10.0688 18.3582V18.9582ZM5.53683 15.1275C5.90115 17.3016 7.79121 18.9582 10.0688 18.9582V18.3582C8.08915 18.3582 6.44526 16.9181 6.12858 15.0284L5.53683 15.1275Z" fill="currentColor" mask="url(#path-1-outside-1_1152_8949)" />
			
		</g>
	</symbol>

	<!-- <symbol id="svg-catalogy" viewBox="0 0 22 22">
		<g>
		
			
			
		</g>
	</symbol> -->
</svg>
