<svg width="28" height="22" viewBox="0 0 28 22" fill="none" xmlns="http://www.w3.org/2000/svg">
<path fill-rule="evenodd" clip-rule="evenodd" d="M27.7515 12.9872L27.8757 13.5142C27.942 13.8061 28 14.3736 28 14.7708C28 15.3789 27.9669 15.5735 27.7929 15.9464C27.6521 16.2464 27.4864 16.4572 27.271 16.595C27.1053 16.7004 26.7574 16.8301 26.5089 16.8788C26.1858 16.9436 25.8793 16.9355 25.432 16.8707C25.0923 16.822 24.5207 16.6923 24.1645 16.5869C23.8166 16.4815 23.5266 16.3599 23.5266 16.3113C23.5266 16.2626 23.6095 16.2302 23.7172 16.2302C23.8166 16.2302 24.1231 16.1572 24.3964 16.068C24.6698 15.9788 25.0675 15.7762 25.2911 15.6221C25.5065 15.4681 25.7964 15.1681 25.929 14.9492C26.0698 14.7384 26.2355 14.3898 26.3018 14.1628C26.3763 13.9358 26.4177 13.6115 26.4095 13.425C26.4012 13.2466 26.426 13.0683 26.4675 13.044C26.5089 13.0115 26.8071 12.9872 27.7515 12.9872ZM10.1893 17.6895C15.8805 17.6895 18.8047 17.7138 18.8047 17.7706C18.8047 17.8192 18.871 17.8517 18.9538 17.8517C19.0284 17.8517 19.2686 17.9571 19.4923 18.0949C19.7325 18.2489 19.9645 18.484 20.1053 18.7273C20.2793 19.011 20.3373 19.2218 20.3373 19.5542C20.3373 19.8704 20.2793 20.1136 20.1302 20.4055C20.0059 20.6325 19.7822 20.9 19.5917 21.0379C19.4095 21.1676 19.1609 21.2973 19.0284 21.3216C18.9041 21.3541 18.8047 21.4027 18.8047 21.4432C18.8047 21.4757 14.9278 21.5 10.1893 21.5C4.53136 21.5 1.5574 21.4757 1.53254 21.4189C1.50769 21.3784 1.39172 21.3216 1.25917 21.2973C1.13491 21.273 0.869823 21.1189 0.671006 20.9568C0.472189 20.7865 0.240237 20.5109 0.157396 20.3487C0.0579882 20.1542 0 19.8704 0 19.5785C0.00828402 19.2218 0.0579882 19.011 0.231953 18.7192C0.356213 18.5003 0.59645 18.2408 0.76213 18.1273C0.936095 18.0219 1.16805 17.9084 1.27574 17.8841C1.38343 17.8598 1.49112 17.803 1.52426 17.7625C1.5574 17.7219 5.26864 17.6895 10.1893 17.6895ZM9.51006 19.1894C9.40237 19.3921 9.3858 19.4002 8.51598 19.3921C7.7787 19.3921 7.6213 19.3677 7.6213 19.2705C7.6213 19.2056 7.50533 19.0597 7.37278 18.9462C7.19882 18.8083 7.02485 18.7435 6.81775 18.7435C6.56095 18.7516 6.44497 18.8083 6.19645 19.0678L5.88166 19.3921H3.81065C3.58698 19.0191 3.43787 18.8732 3.33846 18.8246C3.23077 18.784 3.03195 18.7435 2.89941 18.7435C2.74201 18.7435 2.55148 18.8246 2.39408 18.9705C2.2284 19.1164 2.12899 19.2948 2.08757 19.5218C2.02959 19.838 2.05444 19.8785 2.34438 20.1542C2.58462 20.3893 2.71716 20.446 2.96568 20.446C3.2142 20.4379 3.33018 20.3812 3.58698 20.1217L3.89349 19.7974H5.88166C6.43669 20.3731 6.56095 20.4379 6.7929 20.446C7.03314 20.446 7.1574 20.3812 7.42248 20.1217L7.75385 19.7974C9.37751 19.7893 9.40237 19.7974 9.51006 20.0001C9.55976 20.1136 9.73373 20.2758 9.88284 20.365C10.0237 20.4541 10.2391 20.5271 10.355 20.5271C10.471 20.5271 10.6864 20.4541 10.8355 20.365C10.9763 20.2758 11.1503 20.1136 11.2083 20.0001C11.3077 19.7974 11.3243 19.7893 12.2024 19.7974H13.0888C13.6604 20.3893 13.7598 20.4379 14.0414 20.4379C14.3231 20.4379 14.4225 20.3893 14.6876 20.1217L14.9941 19.7974H16.7337C17.297 20.3812 17.413 20.4379 17.6698 20.446C17.8935 20.446 18.0426 20.3812 18.2331 20.2271C18.3988 20.0731 18.4982 19.8947 18.5396 19.6677C18.5976 19.3515 18.5728 19.311 18.2911 19.0353C18.0426 18.8002 17.9101 18.7435 17.6698 18.7435C17.413 18.7516 17.297 18.8083 17.0485 19.0678L16.7337 19.3921H14.9941C14.4225 18.8002 14.3231 18.7516 14.0414 18.7516C13.7598 18.7516 13.6604 18.8002 13.4036 19.0678L13.0888 19.3921C11.3243 19.4002 11.3077 19.3921 11.2083 19.1894C11.1503 19.0759 10.9763 18.9137 10.8355 18.8246C10.6864 18.7354 10.471 18.6624 10.355 18.6624C10.2391 18.6624 10.0237 18.7354 9.88284 18.8246C9.73373 18.9137 9.55976 19.0759 9.51006 19.1894ZM21.2568 0.526108C21.3065 0.58286 22.7728 3.16102 24.5124 6.25805C26.2521 9.35509 27.6686 11.917 27.6686 11.9495C27.6686 11.99 27.3124 12.0062 26.0698 11.9738L20.2959 2.85294V1.23145L20.7266 0.83419C21.058 0.526108 21.1822 0.453141 21.2568 0.526108ZM19.658 1.23145C19.6911 1.23145 19.7077 1.67736 19.6746 3.21777L15.0686 6.62289L15.0769 9.09565H13.4201C12.5089 9.09565 11.7633 9.07133 11.7633 9.03079C11.7633 8.99836 12.2686 7.96872 14.0083 4.51496L16.8 2.87726C18.3325 1.97734 19.6166 1.23956 19.658 1.23145ZM10.8521 9.66317H15.6982L17.2308 12.2575V16.3113H3.39645V14.2844H8.20118L8.15976 13.6763L3.39645 13.6358V12.0143H4.63905V11.5279L8.2426 11.5684L8.29231 12.1359L9.3858 12.1116C9.99053 12.1035 10.5621 12.0711 10.6615 12.0549C10.8521 12.0143 10.8521 11.99 10.8521 10.8387V9.66317ZM11.8462 13.6358H16.2367V12.0954L15.1598 10.555H11.8462V13.6358ZM10.3633 19.0678C10.4959 19.0678 10.6615 19.1245 10.7278 19.1894C10.7941 19.2542 10.8769 19.3921 10.9018 19.4894C10.9349 19.611 10.8935 19.7488 10.7858 19.8785C10.6864 20.0082 10.529 20.0893 10.3716 20.0974C10.1645 20.1136 10.0651 20.0731 9.94083 19.8947C9.84142 19.7731 9.76686 19.6353 9.76686 19.5866C9.75858 19.538 9.84142 19.4002 9.94083 19.2786C10.0568 19.138 10.1976 19.0678 10.3633 19.0678ZM3.01538 19.1651C3.18935 19.1813 3.29704 19.2542 3.36331 19.3921C3.4213 19.5056 3.43787 19.6677 3.40473 19.7569C3.36331 19.8461 3.24734 19.9596 3.13965 20.0163C2.99053 20.0812 2.89941 20.0893 2.77515 20.0244C2.68402 19.9758 2.58462 19.8947 2.55148 19.8461C2.51834 19.7974 2.48521 19.6758 2.47692 19.5785C2.47692 19.4813 2.53491 19.3434 2.61775 19.2705C2.70059 19.1894 2.85799 19.1488 3.01538 19.1651ZM6.8426 19.1488C7.04142 19.1488 7.14911 19.1975 7.2071 19.311C7.24852 19.4002 7.28994 19.5542 7.28994 19.6515C7.28994 19.7569 7.24852 19.8866 7.19053 19.9353C7.13254 19.992 6.97515 20.0407 6.83432 20.0407C6.69349 20.0488 6.53609 19.9839 6.46154 19.9028C6.40355 19.8218 6.34556 19.6839 6.34556 19.5948C6.34556 19.5056 6.39527 19.3677 6.45325 19.2867C6.51953 19.2056 6.67692 19.1488 6.8426 19.1488ZM14.0331 19.1488C14.174 19.1488 14.3396 19.1894 14.3976 19.2461C14.4556 19.3029 14.497 19.465 14.5053 19.5948C14.5053 19.7326 14.4391 19.8866 14.3562 19.9596C14.2734 20.0163 14.116 20.065 14 20.065C13.884 20.0569 13.7432 20.0001 13.6852 19.9434C13.6272 19.8866 13.5692 19.7488 13.5609 19.6353C13.5609 19.5218 13.6024 19.3677 13.6604 19.2867C13.7266 19.2056 13.884 19.1488 14.0331 19.1488ZM17.6947 19.1488C17.8935 19.1488 18.0012 19.1975 18.0592 19.311C18.1006 19.4002 18.142 19.5542 18.142 19.6515C18.142 19.7569 18.1006 19.8866 18.0426 19.9353C17.9846 19.992 17.8272 20.0407 17.6864 20.0407C17.5456 20.0488 17.3882 19.9839 17.3136 19.9028C17.2556 19.8218 17.1976 19.6839 17.1976 19.5948C17.1976 19.5056 17.2473 19.3677 17.3053 19.2867C17.3716 19.2056 17.529 19.1488 17.6947 19.1488Z" fill="#1C1C1C"/>
</svg>
