<svg width="20" height="23" viewBox="0 0 20 23" fill="none" xmlns="http://www.w3.org/2000/svg">
<mask id="path-1-outside-1_1242_4430" maskUnits="userSpaceOnUse" x="0" y="0" width="20" height="23" fill="black">
<rect fill="white" width="20" height="23"/>
<path fill-rule="evenodd" clip-rule="evenodd" d="M15.7784 6.25H16.7501V7.20452H15.7784C15.5359 10.1442 13.0732 12.4543 10.0709 12.4543C7.06864 12.4543 4.60594 10.1442 4.36336 7.20452H3.38672V6.25H4.36334C4.60581 3.31023 7.06856 1 10.0709 1C13.0732 1 15.536 3.31023 15.7784 6.25ZM5.32185 7.20452C5.56136 9.61623 7.59617 11.4998 10.0709 11.4998C12.5456 11.4998 14.5804 9.61623 14.8199 7.20452H5.32185ZM8.7514 6.25H11.6172V2.21059C11.1322 2.0446 10.6121 1.95452 10.0709 1.95452C9.61315 1.95452 9.17046 2.01897 8.7514 2.13927V6.25ZM7.79688 6.25H5.32183C5.48158 4.64057 6.44086 3.26632 7.79688 2.53007V6.25ZM14.82 6.25H12.5717V2.66141C13.8072 3.42294 14.6693 4.73184 14.82 6.25ZM6.73622 14.5996C7.75269 14.1413 8.88055 13.8862 10.068 13.8862C11.256 13.8862 12.3844 14.1415 13.4013 14.6003C13.2795 16.3346 11.834 17.7037 10.0688 17.7037C8.30331 17.7037 6.85768 16.3342 6.73622 14.5996ZM5.8327 15.078C3.50639 16.5044 1.95452 19.0708 1.95452 21.9996H1C1 16.9915 5.05987 12.9316 10.068 12.9316C15.0761 12.9316 19.136 16.9915 19.136 21.9996H18.1814C18.1814 19.0714 16.6302 16.5055 14.3047 15.0789C13.9639 17.1103 12.1971 18.6582 10.0688 18.6582C7.94018 18.6582 6.17321 17.1098 5.8327 15.078Z"/>
</mask>
<path fill-rule="evenodd" clip-rule="evenodd" d="M15.7784 6.25H16.7501V7.20452H15.7784C15.5359 10.1442 13.0732 12.4543 10.0709 12.4543C7.06864 12.4543 4.60594 10.1442 4.36336 7.20452H3.38672V6.25H4.36334C4.60581 3.31023 7.06856 1 10.0709 1C13.0732 1 15.536 3.31023 15.7784 6.25ZM5.32185 7.20452C5.56136 9.61623 7.59617 11.4998 10.0709 11.4998C12.5456 11.4998 14.5804 9.61623 14.8199 7.20452H5.32185ZM8.7514 6.25H11.6172V2.21059C11.1322 2.0446 10.6121 1.95452 10.0709 1.95452C9.61315 1.95452 9.17046 2.01897 8.7514 2.13927V6.25ZM7.79688 6.25H5.32183C5.48158 4.64057 6.44086 3.26632 7.79688 2.53007V6.25ZM14.82 6.25H12.5717V2.66141C13.8072 3.42294 14.6693 4.73184 14.82 6.25ZM6.73622 14.5996C7.75269 14.1413 8.88055 13.8862 10.068 13.8862C11.256 13.8862 12.3844 14.1415 13.4013 14.6003C13.2795 16.3346 11.834 17.7037 10.0688 17.7037C8.30331 17.7037 6.85768 16.3342 6.73622 14.5996ZM5.8327 15.078C3.50639 16.5044 1.95452 19.0708 1.95452 21.9996H1C1 16.9915 5.05987 12.9316 10.068 12.9316C15.0761 12.9316 19.136 16.9915 19.136 21.9996H18.1814C18.1814 19.0714 16.6302 16.5055 14.3047 15.0789C13.9639 17.1103 12.1971 18.6582 10.0688 18.6582C7.94018 18.6582 6.17321 17.1098 5.8327 15.078Z" fill="#1C1C1C"/>
<path d="M16.7501 6.25H17.0501V5.95H16.7501V6.25ZM15.7784 6.25L15.4795 6.27466L15.5022 6.55H15.7784V6.25ZM16.7501 7.20452V7.50452H17.0501V7.20452H16.7501ZM15.7784 7.20452V6.90452H15.5022L15.4794 7.17985L15.7784 7.20452ZM4.36336 7.20452L4.66235 7.17985L4.63963 6.90452H4.36336V7.20452ZM3.38672 7.20452H3.08672V7.50452H3.38672V7.20452ZM3.38672 6.25V5.95H3.08672V6.25H3.38672ZM4.36334 6.25V6.55H4.63962L4.66233 6.27466L4.36334 6.25ZM5.32185 7.20452V6.90452H4.99058L5.02332 7.23417L5.32185 7.20452ZM14.8199 7.20452L15.1185 7.23417L15.1512 6.90452H14.8199V7.20452ZM11.6172 6.25V6.55H11.9172V6.25H11.6172ZM8.7514 6.25H8.4514V6.55H8.7514V6.25ZM11.6172 2.21059H11.9172V1.99618L11.7143 1.92675L11.6172 2.21059ZM8.7514 2.13927L8.66862 1.85092L8.4514 1.91328V2.13927H8.7514ZM7.79688 6.25V6.55H8.09688V6.25H7.79688ZM5.32183 6.25L5.02329 6.22037L4.99057 6.55H5.32183V6.25ZM7.79688 2.53007H8.09688V2.02581L7.65373 2.26642L7.79688 2.53007ZM12.5717 6.25H12.2717V6.55H12.5717V6.25ZM14.82 6.25V6.55H15.1512L15.1185 6.22037L14.82 6.25ZM12.5717 2.66141L12.7291 2.40603L12.2717 2.12407V2.66141H12.5717ZM6.73622 14.5996L6.6129 14.3261L6.42236 14.4121L6.43696 14.6206L6.73622 14.5996ZM13.4013 14.6003L13.7006 14.6213L13.7152 14.4128L13.5247 14.3269L13.4013 14.6003ZM1.95452 21.9996V22.2996H2.25452V21.9996H1.95452ZM5.8327 15.078L6.12858 15.0284L6.05506 14.5897L5.67588 14.8222L5.8327 15.078ZM1 21.9996H0.7V22.2996H1V21.9996ZM19.136 21.9996V22.2996H19.436V21.9996H19.136ZM18.1814 21.9996H17.8814V22.2996H18.1814V21.9996ZM14.3047 15.0789L14.4616 14.8232L14.0825 14.5906L14.0089 15.0292L14.3047 15.0789ZM16.7501 5.95H15.7784V6.55H16.7501V5.95ZM17.0501 7.20452V6.25H16.4501V7.20452H17.0501ZM15.7784 7.50452H16.7501V6.90452H15.7784V7.50452ZM10.0709 12.7543C13.2306 12.7543 15.8221 10.3231 16.0774 7.2292L15.4794 7.17985C15.2496 9.96521 12.9157 12.1543 10.0709 12.1543V12.7543ZM4.06438 7.2292C4.31969 10.3231 6.91123 12.7543 10.0709 12.7543V12.1543C7.22605 12.1543 4.89219 9.96521 4.66235 7.17985L4.06438 7.2292ZM3.38672 7.50452H4.36336V6.90452H3.38672V7.50452ZM3.08672 6.25V7.20452H3.68672V6.25H3.08672ZM4.36334 5.95H3.38672V6.55H4.36334V5.95ZM10.0709 0.7C6.91114 0.7 4.31955 3.13127 4.06436 6.22534L4.66233 6.27466C4.89207 3.4892 7.22598 1.3 10.0709 1.3V0.7ZM16.0774 6.22534C15.8222 3.13127 13.2306 0.7 10.0709 0.7V1.3C12.9158 1.3 15.2497 3.4892 15.4795 6.27466L16.0774 6.22534ZM10.0709 11.1998C7.7519 11.1998 5.8448 9.43466 5.62038 7.17488L5.02332 7.23417C5.27791 9.79779 7.44043 11.7998 10.0709 11.7998V11.1998ZM14.5214 7.17488C14.297 9.43466 12.3899 11.1998 10.0709 11.1998V11.7998C12.7014 11.7998 14.8639 9.79779 15.1185 7.23417L14.5214 7.17488ZM5.32185 7.50452H14.8199V6.90452H5.32185V7.50452ZM11.6172 5.95H8.7514V6.55H11.6172V5.95ZM11.3172 2.21059V6.25H11.9172V2.21059H11.3172ZM10.0709 2.25452C10.5786 2.25452 11.066 2.339 11.52 2.49442L11.7143 1.92675C11.1985 1.75021 10.6456 1.65452 10.0709 1.65452V2.25452ZM8.83418 2.42762C9.2266 2.31497 9.64144 2.25452 10.0709 2.25452V1.65452C9.58487 1.65452 9.11433 1.72296 8.66862 1.85092L8.83418 2.42762ZM8.4514 2.13927V6.25H9.0514V2.13927H8.4514ZM7.79688 5.95H5.32183V6.55H7.79688V5.95ZM5.62036 6.27963C5.76998 4.77227 6.66857 3.48406 7.94002 2.79371L7.65373 2.26642C6.21316 3.04859 5.19318 4.50886 5.02329 6.22037L5.62036 6.27963ZM8.09688 6.25V2.53007H7.49687V6.25H8.09688ZM12.5717 6.55H14.82V5.95H12.5717V6.55ZM12.2717 2.66141V6.25H12.8717V2.66141H12.2717ZM15.1185 6.22037C14.9582 4.60591 14.0415 3.21499 12.7291 2.40603L12.4143 2.91679C13.5728 3.6309 14.3803 4.85777 14.5214 6.27963L15.1185 6.22037ZM10.068 13.5862C8.83719 13.5862 7.66737 13.8506 6.6129 14.3261L6.85955 14.8731C7.83802 14.4319 8.9239 14.1862 10.068 14.1862V13.5862ZM13.5247 14.3269C12.4698 13.8509 11.2994 13.5862 10.068 13.5862V14.1862C11.2127 14.1862 12.2991 14.4321 13.2779 14.8738L13.5247 14.3269ZM10.0688 18.0037C11.9927 18.0037 13.5678 16.5116 13.7006 14.6213L13.1021 14.5793C12.9912 16.1575 11.6754 17.4037 10.0688 17.4037V18.0037ZM6.43696 14.6206C6.56934 16.5112 8.14465 18.0037 10.0688 18.0037V17.4037C8.46197 17.4037 7.14602 16.1572 7.03549 14.5787L6.43696 14.6206ZM2.25452 21.9996C2.25452 19.1794 3.74845 16.7079 5.98952 15.3337L5.67588 14.8222C3.26433 16.301 1.65452 18.9622 1.65452 21.9996H2.25452ZM1 22.2996H1.95452V21.6996H1V22.2996ZM10.068 12.6316C4.89419 12.6316 0.7 16.8258 0.7 21.9996H1.3C1.3 17.1572 5.22556 13.2316 10.068 13.2316V12.6316ZM19.436 21.9996C19.436 16.8258 15.2418 12.6316 10.068 12.6316V13.2316C14.9104 13.2316 18.836 17.1572 18.836 21.9996H19.436ZM18.1814 22.2996H19.136V21.6996H18.1814V22.2996ZM14.1479 15.3346C16.3881 16.709 17.8814 19.18 17.8814 21.9996H18.4814C18.4814 18.9628 16.8723 16.3021 14.4616 14.8232L14.1479 15.3346ZM10.0688 18.9582C12.346 18.9582 14.2359 17.3021 14.6006 15.1285L14.0089 15.0292C13.6918 16.9185 12.0482 18.3582 10.0688 18.3582V18.9582ZM5.53683 15.1275C5.90115 17.3016 7.79121 18.9582 10.0688 18.9582V18.3582C8.08915 18.3582 6.44526 16.9181 6.12858 15.0284L5.53683 15.1275Z" fill="#1C1C1C" mask="url(#path-1-outside-1_1242_4430)"/>
</svg>
