<svg width="11" height="12" viewBox="0 0 11 12" fill="none" xmlns="http://www.w3.org/2000/svg">
<path d="M0.500406 0.97034C0.5697 0.900495 0.652018 0.845081 0.742646 0.807271C0.833274 0.769462 0.93043 0.75 1.02855 0.75C1.12667 0.75 1.22383 0.769462 1.31446 0.807271C1.40508 0.845081 1.4874 0.900495 1.5567 0.97034L5.50436 4.94084L9.45202 0.97034C9.52137 0.900608 9.60371 0.845294 9.69433 0.807555C9.78495 0.769817 9.88208 0.750393 9.98016 0.750393C10.0782 0.750393 10.1754 0.769817 10.266 0.807555C10.3566 0.845294 10.439 0.900608 10.5083 0.97034C10.5777 1.04007 10.6327 1.12286 10.6702 1.21396C10.7078 1.30507 10.7271 1.40272 10.7271 1.50134C10.7271 1.59996 10.7078 1.69761 10.6702 1.78872C10.6327 1.87982 10.5777 1.96261 10.5083 2.03234L6.55915 6.00134L10.5083 9.97034C10.5777 10.0401 10.6327 10.1229 10.6702 10.214C10.7078 10.3051 10.7271 10.4027 10.7271 10.5013C10.7271 10.6 10.7078 10.6976 10.6702 10.7887C10.6327 10.8798 10.5777 10.9626 10.5083 11.0323C10.439 11.1021 10.3566 11.1574 10.266 11.1951C10.1754 11.2329 10.0782 11.2523 9.98016 11.2523C9.88208 11.2523 9.78495 11.2329 9.69433 11.1951C9.60371 11.1574 9.52137 11.1021 9.45202 11.0323L5.50436 7.06184L1.5567 11.0323C1.48734 11.1021 1.405 11.1574 1.31438 11.1951C1.22376 11.2329 1.12664 11.2523 1.02855 11.2523C0.930465 11.2523 0.83334 11.2329 0.74272 11.1951C0.652101 11.1574 0.569763 11.1021 0.500406 11.0323C0.431049 10.9626 0.376031 10.8798 0.338496 10.7887C0.30096 10.6976 0.281641 10.6 0.281641 10.5013C0.281641 10.4027 0.30096 10.3051 0.338496 10.214C0.376031 10.1229 0.431049 10.0401 0.500406 9.97034L4.44956 6.00134L0.500406 2.03234C0.430936 1.96267 0.37582 1.87991 0.338213 1.78879C0.300607 1.69767 0.28125 1.59999 0.28125 1.50134C0.28125 1.40269 0.300607 1.30501 0.338213 1.21389C0.37582 1.12277 0.430936 1.04001 0.500406 0.97034Z" fill="#BABABA"/>
</svg>
