<svg width="21" height="19" viewBox="0 0 21 19" fill="none" xmlns="http://www.w3.org/2000/svg">
<path d="M8.8408 0.5C8.37524 0.5 7.89926 0.637695 7.56225 0.921875C7.22524 1.20605 7.06194 1.60742 7.06194 2V2.75H0.835938V4.25H1.80875L3.50423 17.8203L3.58761 18.5H17.6517L17.7351 17.8203L19.4306 4.25H20.4034V2.75H14.1774V2C14.1774 1.60742 14.0141 1.20605 13.6771 0.921875C13.3401 0.637695 12.8641 0.5 12.3985 0.5H8.8408ZM8.8408 2H12.3985V2.75H8.8408V2ZM3.6154 4.25H17.6239L16.0396 17H5.1997L3.6154 4.25ZM7.06194 6.5V14.75H8.8408V6.5H7.06194ZM9.73023 6.5V14.75H11.5091V6.5H9.73023ZM12.3985 6.5V14.75H14.1774V6.5H12.3985Z" fill="#2B2A29"/>
</svg>
